<?xml version="1.0" encoding="iso-8859-1"?>
<!-- Generator: Adobe Illustrator 19.0.0, SVG Export Plug-In . SVG Version: 6.00 Build 0)  -->
<svg version="1.1" id="Capa_1" xmlns="http://www.w3.org/2000/svg" xmlns:xlink="http://www.w3.org/1999/xlink" x="0px" y="0px"
	 viewBox="0 0 512 512" style="enable-background:new 0 0 512 512;" xml:space="preserve">
<polygon style="fill:#B7E4F8;" points="425.054,129.833 73.88,129.833 16.618,293.136 495.383,293.136 "/>
<polygon style="fill:#93D6F4;" points="255.334,293.136 495.383,293.136 425.054,129.833 255.334,129.833 "/>
<rect x="27.667" y="361.5" style="fill:#333333;" width="100.33" height="126"/>
<rect x="384" y="361.5" width="100.33" height="126"/>
<rect x="240.999" y="171.057" transform="matrix(-0.7071 -0.7071 0.7071 -0.7071 270.7294 582.4717)" width="29.999" height="128.219"/>
<rect y="268.83" style="fill:#FF4F19;" width="512" height="165.33"/>
<rect x="256" y="268.83" style="fill:#C23913;" width="256" height="165.33"/>
<g>
	<path style="fill:#4BBAED;" d="M226.98,81.146l21.271,21.271c2.21-1.657,4.888-2.583,7.75-2.583c2.862,0,5.54,0.926,7.75,2.584
		l21.271-21.271c-7.86-7.182-18.213-11.313-29.021-11.313S234.839,73.965,226.98,81.146z"/>
	<path style="fill:#4BBAED;" d="M256,54.5c14.937,0,29.186,5.602,40.117,15.55l21.242-21.242C300.808,33.258,278.939,24.5,256,24.5
		s-44.808,8.757-61.359,24.308l21.242,21.242C226.814,60.102,241.062,54.5,256,54.5z"/>
</g>
<rect x="64" y="336.5" style="fill:#FFDB2D;" width="64" height="30"/>
<rect x="192" y="336.5" style="fill:#FFFFFF;" width="128" height="30"/>
<rect x="384" y="336.5" style="fill:#FFDB2D;" width="64" height="30"/>
<rect x="256" y="336.5" style="fill:#E6E6E6;" width="64" height="30"/>
<g>
</g>
<g>
</g>
<g>
</g>
<g>
</g>
<g>
</g>
<g>
</g>
<g>
</g>
<g>
</g>
<g>
</g>
<g>
</g>
<g>
</g>
<g>
</g>
<g>
</g>
<g>
</g>
<g>
</g>
</svg>
